<svg xmlns="http://www.w3.org/2000/svg" width="114" height="161" viewBox="0 0 114 161"><g><g><g><g><path fill="#ff5003" d="M20.866 147.258l36.34-36.487 35.856 36.563L80.787 99.39l6.25-7.44V70.525l-5.357-7.44L93.73 14.509 57.28 45.976 20.75 14.583l11.005 49.545-5.058 7.29v19.789l5.95 8.034z"/></g><g><path fill="maroon" d="M23.218 13.093L56.843 0l33.03 12.795-32.435 28.269z"/></g><g><path fill="#002507" d="M96.717 16.366l16.068 38.089 1.19 52.073-16.96 39.576-13.391-46.123 6.844-7.736V71.118l-5.654-8.035z"/></g><g><path fill="maroon" d="M89.873 148.113l-33.179 12.498-33.774-12.646 34.072-31.989z"/></g><g><path fill="#002507" d="M17.118 147.22l12.53-47.313-6.546-8.332.446-21.276 5.207-6.993-11.717-48.69L.78 54.12 0 106.267z"/></g><g><path fill="#1f1b20" d="M38.3 46.722l6.545 3.273-.148 8.63-2.976 9.67 1.785-12.647-10.898-5.393z"/></g><g><path fill="#1f1b20" d="M75.945 45.266l-6.547 3.273.149 8.63 2.976 9.67-1.786-12.647L81.636 48.8z"/></g><g><path d="M44.546 83.457l2.48 1.487 2.107-.842 3.1-.026 1.86 2.232 1.843.264 4.701-.204 1.86-2.232 2.727-.124 2.48.992 2.48-1.488-10.91 14.258-.25 3.968 13.516 1.24 1.115-2.356-6.57-.744V97.9l9.05-.993.372 4.588-2.356 4.464-3.844.868-9.299-2.232-3.531 2.694-3.756-2.754-9.299 2.232-3.843-.869-2.356-4.462.371-4.588 9.052.992v1.983l-6.571.744 1.116 2.356 13.514-1.24-.248-3.967z"/></g><g><path fill="#fefefe" d="M51.447 87.1l2.96 1.163 2.784 4.707 2.929-4.152 3.922-2.386-7.027 9.689z"/></g><g><path fill="#fefefe" d="M76.36 49.36l-4.243 1.894.311-1.8.916-.662z"/></g><g><path fill="#fefefe" d="M37.185 50.546l4.188 2.014-.26-1.81-.898-.686z"/></g></g></g></g></svg>